<?xml version="1.0" standalone="no"?>
<!DOCTYPE svg PUBLIC "-//W3C//DTD SVG 20010904//EN"
 "http://www.w3.org/TR/2001/REC-SVG-20010904/DTD/svg10.dtd">
<svg version="1.0" xmlns="http://www.w3.org/2000/svg"
 width="900.000000pt" height="900.000000pt" viewBox="0 0 900.000000 900.000000"
 preserveAspectRatio="xMidYMid meet">
<metadata>
Created by potrace 1.10, written by Peter Selinger 2001-2011
</metadata>
<g transform="translate(0.000000,900.000000) scale(0.100000,-0.100000)"
fill="#000000" stroke="none">
<path d="M5899 6121 c-215 -59 -393 -205 -494 -406 -46 -92 -81 -205 -71 -231
7 -17 57 -19 74 -2 7 7 12 21 12 33 0 33 46 142 90 214 89 146 220 251 375
304 91 30 267 30 355 -1 161 -56 283 -163 365 -320 15 -29 31 -55 37 -58 9 -6
68 14 68 23 0 2 -10 25 -21 51 -79 174 -237 318 -415 378 -106 36 -276 42
-375 15z"/>
<path d="M2940 6116 c-90 -18 -128 -37 -193 -96 -143 -130 -168 -349 -57 -489
45 -57 158 -137 207 -147 28 -5 33 -3 47 24 18 35 13 41 -68 82 -78 40 -143
110 -162 176 -14 48 -14 66 -4 117 22 114 71 175 180 226 49 23 67 26 160 25
83 0 116 -5 160 -22 65 -26 150 -97 181 -152 18 -31 29 -40 50 -40 14 0 32 7
39 15 30 36 -104 197 -206 245 -52 24 -175 50 -234 49 -19 -1 -64 -7 -100 -13z"/>
<path d="M4095 6116 c-182 -36 -315 -197 -315 -382 0 -119 60 -219 178 -298
91 -60 124 -67 147 -32 17 25 17 28 0 46 -10 11 -27 22 -39 26 -29 9 -106 63
-135 94 -43 46 -61 95 -61 163 0 126 53 213 165 268 105 52 264 50 368 -3 52
-26 119 -89 143 -133 29 -55 94 -62 94 -10 0 55 -109 175 -198 220 -56 28
-179 55 -247 54 -22 -1 -67 -6 -100 -13z"/>
<path d="M1583 6103 c-18 -7 -19 -1443 -1 -1461 17 -17 759 -17 776 0 15 15
15 51 0 66 -9 9 -100 12 -350 12 -282 0 -338 2 -345 14 -4 8 -6 300 -3 648 l5
633 339 3 c230 1 344 6 353 13 18 16 17 65 -3 73 -19 7 -753 7 -771 -1z"/>
<path d="M1157 6093 c-4 -3 -7 -241 -7 -527 0 -287 -5 -552 -10 -589 -23 -156
-103 -239 -247 -255 l-68 -7 0 -40 0 -40 70 1 c155 3 281 109 327 276 16 59
24 1138 8 1168 -10 19 -58 28 -73 13z"/>
<path d="M4940 6081 c-6 -13 -10 -255 -10 -716 0 -461 4 -703 10 -716 11 -19
35 -24 64 -13 14 6 16 79 16 729 0 650 -2 723 -16 729 -29 11 -53 6 -64 -13z"/>
<path d="M7374 5993 c-14 -32 -36 -80 -49 -108 -29 -61 -145 -335 -145 -341 0
-3 -16 -38 -35 -79 -19 -40 -71 -161 -115 -267 -45 -106 -92 -215 -105 -243
-68 -148 -127 -297 -121 -310 3 -9 18 -15 35 -15 36 0 57 27 94 120 71 178
130 307 148 323 19 15 50 17 324 17 167 0 311 -3 319 -6 15 -6 31 -37 80 -149
7 -16 23 -50 34 -75 11 -25 37 -83 57 -130 39 -92 46 -100 88 -100 39 0 42 20
14 82 -27 58 -31 66 -107 248 -29 69 -56 132 -60 140 -4 8 -14 31 -22 50 -9
19 -27 60 -41 90 -14 30 -51 118 -82 195 -32 77 -62 144 -66 149 -5 6 -9 16
-9 23 0 7 -14 43 -32 80 -18 38 -60 133 -94 213 -34 79 -66 146 -73 148 -6 2
-23 -23 -37 -55z"/>
<path d="M1838 5420 c-21 -13 -24 -50 -6 -68 13 -13 375 -17 394 -4 15 10 23
47 13 63 -11 18 -374 25 -401 9z"/>
<path d="M3123 5374 c-22 -34 -9 -55 44 -70 63 -19 115 -49 163 -97 61 -60 84
-125 78 -220 -12 -187 -130 -287 -340 -287 -166 0 -312 70 -384 183 -24 37
-53 47 -83 28 -29 -18 15 -100 94 -174 86 -80 264 -134 409 -124 190 13 307
91 367 244 17 45 22 79 23 153 0 83 -3 103 -27 155 -45 98 -123 166 -242 210
-81 31 -81 31 -102 -1z"/>
<path d="M4291 5386 c-7 -8 -11 -27 -9 -43 2 -23 10 -29 46 -40 107 -30 200
-112 231 -202 15 -47 14 -150 -4 -200 -48 -136 -154 -201 -328 -201 -160 0
-295 62 -374 171 -34 47 -52 56 -87 43 -59 -23 65 -179 194 -244 68 -34 186
-60 273 -60 79 0 203 31 254 63 87 55 143 150 164 274 22 131 -17 249 -110
336 -78 73 -225 134 -250 103z"/>
<path d="M5337 5273 c-21 -20 11 -161 57 -253 122 -243 358 -399 631 -417 187
-12 370 64 517 213 61 62 145 182 154 221 8 29 -11 53 -41 53 -17 0 -29 -13
-50 -52 -60 -116 -151 -213 -255 -272 -72 -40 -109 -54 -200 -73 -132 -27
-298 9 -447 99 -124 75 -254 257 -284 398 -6 30 -18 63 -27 73 -15 17 -43 23
-55 10z"/>
<path d="M2158 4397 c-21 -22 -306 -347 -488 -556 -30 -35 -64 -72 -74 -82
-45 -43 -46 -39 -46 301 0 305 -1 320 -19 330 -27 14 -37 13 -55 -6 -14 -14
-16 -93 -16 -719 0 -387 3 -710 6 -719 5 -14 55 -16 459 -16 250 0 456 4 459
8 6 10 7 8 -254 282 -113 118 -209 220 -215 226 -5 6 -61 63 -122 127 -62 64
-113 123 -113 131 0 8 123 155 273 326 149 171 273 320 275 330 3 20 -22 50
-43 50 -7 0 -20 -6 -27 -13z"/>
<path d="M2642 4388 c-9 -9 -12 -185 -12 -730 0 -699 0 -718 19 -728 13 -6
154 -10 390 -10 323 0 372 2 385 16 9 8 16 22 16 29 0 7 -7 21 -16 29 -13 14
-59 16 -348 16 -269 0 -336 3 -345 14 -8 9 -10 187 -9 647 l3 634 348 5 c294
4 349 7 357 20 14 22 12 36 -6 54 -13 14 -63 16 -393 16 -280 0 -380 -3 -389
-12z"/>
<path d="M3709 4393 c-10 -2 -20 -14 -23 -26 -9 -35 -7 -1410 3 -1425 5 -8 22
-12 42 -10 l34 3 0 730 c0 723 0 730 -20 732 -11 0 -27 -1 -36 -4z"/>
<path d="M3956 4385 c-38 -38 -7 -60 96 -69 84 -7 176 -31 236 -61 81 -42 149
-158 139 -238 -9 -64 -56 -146 -128 -222 -72 -76 -82 -102 -49 -123 19 -12 27
-7 84 50 118 119 160 202 159 316 0 62 -6 88 -28 134 -63 133 -187 196 -431
222 -50 5 -65 4 -78 -9z"/>
<path d="M4832 4392 c-17 -11 -8 -32 43 -107 78 -113 339 -500 454 -672 64
-95 121 -175 128 -177 14 -6 34 20 213 274 68 96 153 216 189 267 179 248 270
381 273 399 3 19 -11 19 -642 21 -355 2 -651 -1 -658 -5z"/>
<path d="M8897 4388 c-16 -12 -17 -57 -19 -627 -2 -464 -6 -615 -15 -618 -6
-2 -51 49 -99 114 -92 125 -590 795 -704 948 -37 50 -75 102 -85 118 -9 15
-26 27 -36 27 -18 0 -19 -21 -19 -705 0 -688 0 -705 20 -715 13 -7 185 -9 517
-8 l498 3 0 735 c0 728 0 735 -20 738 -11 1 -28 -3 -38 -10z"/>
<path d="M617 4343 c-3 -5 -103 -236 -222 -513 -118 -277 -222 -517 -230 -534
-52 -116 -145 -343 -145 -354 0 -9 12 -12 42 -10 l43 3 95 220 95 220 315 3
c173 1 324 0 335 -2 22 -6 33 -26 131 -261 36 -88 71 -166 76 -172 15 -18 88
-17 88 1 0 14 -41 116 -90 221 -32 70 -120 274 -120 280 0 2 -14 34 -31 72
-16 37 -34 77 -38 88 -5 11 -20 45 -34 75 -13 30 -50 116 -81 190 -32 74 -61
144 -66 155 -24 54 -57 129 -96 220 -40 94 -56 117 -67 98z"/>
<path d="M7012 4341 c-10 -6 -52 -100 -116 -256 -7 -16 -20 -46 -29 -65 -70
-156 -451 -1050 -455 -1068 -4 -22 -2 -23 39 -20 l44 3 93 214 c50 118 98 218
105 223 15 10 638 10 653 0 12 -7 60 -106 95 -194 23 -59 33 -83 77 -180 31
-68 31 -68 71 -68 28 0 41 4 41 14 0 17 -58 157 -71 171 -5 5 -9 15 -9 21 0 7
-19 52 -41 101 -23 48 -52 117 -66 153 -14 36 -43 106 -65 155 -22 50 -46 104
-53 120 -7 17 -24 55 -38 85 -14 30 -42 96 -62 145 -20 50 -46 110 -57 135
-11 25 -24 56 -30 70 -15 37 -33 77 -67 153 -17 37 -31 71 -31 76 0 14 -14 21
-28 12z"/>
<path d="M4852 4074 l-22 -15 0 -549 c0 -301 3 -555 6 -564 4 -10 18 -16 40
-16 30 0 34 3 39 33 3 17 5 274 3 570 -3 465 -5 539 -18 547 -20 13 -22 13
-48 -6z"/>
<path d="M6068 4083 c-10 -3 -20 -14 -23 -26 -3 -12 -4 -269 -3 -572 l3 -550
35 0 35 0 3 567 c2 533 1 568 -15 576 -10 5 -26 7 -35 5z"/>
<path d="M2892 3708 c-16 -16 -15 -43 2 -57 10 -8 73 -12 201 -12 192 0 215 4
215 40 0 37 -19 41 -215 41 -135 0 -195 -4 -203 -12z"/>
<path d="M3966 3638 c-18 -25 -19 -22 59 -117 33 -41 94 -116 135 -167 41 -51
125 -153 186 -227 61 -74 122 -148 135 -166 12 -17 28 -31 34 -31 12 0 55 42
55 54 0 7 -147 190 -331 412 -46 56 -109 132 -139 169 -30 37 -61 74 -68 81
-20 20 -49 17 -66 -8z"/>
</g>
</svg>
