<?xml version="1.0" standalone="no"?>
<!DOCTYPE svg PUBLIC "-//W3C//DTD SVG 20010904//EN"
 "http://www.w3.org/TR/2001/REC-SVG-20010904/DTD/svg10.dtd">
<svg version="1.0" xmlns="http://www.w3.org/2000/svg"
 width="1350.000000pt" height="150.000000pt" viewBox="0 0 1350.000000 150.000000"
 preserveAspectRatio="xMidYMid meet">
<metadata>
Created by potrace 1.10, written by Peter Selinger 2001-2011
</metadata>
<g transform="translate(0.000000,192.000000) scale(0.100000,-0.100000)"
fill="#000000" stroke="none">
<path d="M4105 1784 c-11 -2 -45 -9 -75 -16 -209 -44 -389 -220 -449 -440 -16
-57 -9 -81 21 -76 17 2 26 18 44 71 33 97 79 172 149 241 180 179 430 205 628
64 50 -36 106 -101 143 -166 29 -50 41 -62 58 -60 45 6 29 59 -49 163 -95 127
-233 202 -401 219 -27 2 -58 3 -69 0z"/>
<path d="M1655 1761 c-84 -16 -166 -82 -206 -168 -33 -70 -33 -203 -1 -254 30
-49 96 -108 154 -139 39 -20 49 -22 62 -11 28 24 19 48 -27 71 -54 27 -110 77
-131 118 -24 46 -21 142 5 192 23 43 72 86 131 113 57 27 190 23 253 -7 64
-30 106 -65 130 -111 16 -28 25 -35 45 -33 36 4 36 35 -1 91 -32 49 -79 85
-154 120 -45 21 -192 31 -260 18z"/>
<path d="M2605 1766 c-5 -3 -26 -7 -46 -10 -50 -9 -124 -60 -159 -111 -59 -85
-78 -200 -46 -276 23 -54 99 -133 159 -164 60 -32 87 -29 87 9 0 19 -10 30
-47 48 -61 31 -129 99 -137 139 -25 125 21 223 129 273 44 22 68 26 137 26
121 -1 212 -46 259 -130 19 -33 28 -40 49 -38 79 9 -25 153 -154 211 -37 17
-205 33 -231 23z"/>
<path d="M595 1748 c-3 -7 -4 -269 -3 -583 l3 -570 310 0 310 0 0 25 0 25
-272 5 c-149 3 -275 9 -280 13 -13 13 -16 983 -3 1007 10 19 24 20 283 22
l272 3 0 30 0 30 -308 3 c-241 2 -309 0 -312 -10z"/>
<path d="M8000 1663 c-47 -53 -92 -104 -101 -112 -8 -9 -40 -45 -70 -81 -30
-35 -59 -70 -64 -76 -6 -6 -35 -39 -65 -74 -76 -87 -80 -91 -91 -85 -5 4 -9
110 -9 245 0 131 -3 245 -6 254 -4 10 -18 16 -35 16 l-29 0 0 -580 0 -580 359
0 c198 0 362 4 365 8 5 8 -59 78 -441 475 -62 65 -113 123 -113 130 0 12 48
70 165 202 67 75 189 215 243 276 28 32 31 42 22 59 -6 11 -19 20 -28 20 -10
0 -56 -43 -102 -97z"/>
<path d="M8473 1750 l-23 -9 0 -570 c0 -342 4 -572 9 -576 17 -10 613 -7 623
3 6 6 8 18 6 28 -3 18 -19 19 -273 22 -240 2 -271 4 -282 19 -20 27 -18 986 1
1002 11 9 88 12 275 11 l261 -1 12 25 c8 20 8 29 -2 41 -11 13 -53 15 -299 14
-157 0 -296 -4 -308 -9z"/>
<path d="M258 1748 c-1 -2 -5 -212 -8 -468 l-5 -465 -25 -48 c-29 -58 -80 -92
-163 -108 -53 -11 -57 -14 -57 -40 0 -28 2 -29 49 -29 100 0 197 66 244 169
22 45 22 56 22 516 l0 470 -27 3 c-16 2 -29 2 -30 0z"/>
<path d="M3256 1728 c-9 -35 -7 -1111 3 -1126 4 -8 19 -12 32 -10 l24 3 0 575
0 575 -26 3 c-20 2 -28 -2 -33 -20z"/>
<path d="M9297 1743 c-4 -3 -7 -264 -7 -580 l0 -573 30 0 30 0 2 558 c2 306 2
567 0 580 -2 15 -10 22 -26 22 -12 0 -26 -3 -29 -7z"/>
<path d="M9496 1733 c-9 -24 19 -43 63 -43 46 -1 146 -23 192 -43 39 -17 95
-75 110 -114 15 -41 10 -114 -12 -159 -11 -24 -47 -71 -79 -106 -44 -47 -56
-66 -48 -75 20 -25 46 -13 99 45 78 84 104 141 104 227 0 150 -84 235 -270
271 -98 19 -151 18 -159 -3z"/>
<path d="M10190 1736 c0 -8 36 -67 81 -133 128 -189 293 -432 309 -458 62 -96
104 -155 109 -155 15 1 34 23 123 150 52 75 115 163 139 197 58 80 216 304
252 356 15 22 27 44 27 49 0 4 -234 8 -520 8 -440 0 -520 -2 -520 -14z"/>
<path d="M13406 1734 c-3 -9 -6 -231 -6 -495 0 -414 -2 -479 -15 -479 -8 0
-19 8 -24 18 -7 13 -293 399 -416 562 -26 34 -57 76 -207 282 -39 53 -75 95
-80 92 -4 -3 -8 -257 -8 -565 0 -440 3 -559 13 -559 195 -3 790 1 797 5 11 7
14 1112 4 1139 -3 9 -16 16 -29 16 -13 0 -26 -7 -29 -16z"/>
<path d="M6854 1698 c-6 -7 -21 -40 -34 -73 -13 -33 -35 -87 -51 -120 -15 -33
-42 -96 -60 -140 -18 -44 -39 -89 -46 -100 -7 -11 -13 -25 -13 -33 0 -7 -13
-40 -30 -74 -16 -33 -30 -64 -30 -69 0 -9 -48 -117 -76 -171 -8 -14 -14 -31
-14 -37 0 -6 -13 -39 -29 -74 -73 -155 -91 -199 -86 -208 7 -11 45 -12 61 -1
6 4 42 79 79 167 38 88 75 166 84 173 12 9 75 12 266 10 l250 -3 17 -35 c17
-32 60 -131 92 -205 36 -86 52 -110 75 -113 13 -2 28 1 33 6 8 8 -86 244 -183
457 -10 22 -30 69 -44 105 -25 59 -38 89 -96 216 -11 23 -19 44 -19 48 0 7
-12 34 -75 171 -16 33 -31 71 -35 84 -7 29 -23 37 -36 19z"/>
<path d="M5182 1668 c-13 -44 -132 -320 -143 -333 -5 -5 -9 -15 -9 -22 0 -7
-13 -42 -30 -76 -16 -35 -30 -67 -30 -71 0 -3 -13 -34 -29 -69 -53 -112 -81
-176 -81 -183 0 -4 -8 -25 -19 -48 -10 -23 -33 -75 -51 -116 -18 -41 -39 -87
-46 -102 -22 -42 -18 -58 15 -58 35 0 42 8 76 90 41 100 68 160 95 215 l25 50
258 3 257 2 35 -73 c19 -41 35 -77 35 -81 0 -3 14 -37 31 -74 63 -136 60 -132
91 -132 20 0 28 5 28 18 0 17 -241 587 -281 665 -10 21 -19 42 -19 47 0 10
-18 51 -116 265 -15 33 -30 71 -34 85 -4 15 -15 26 -28 28 -16 3 -23 -4 -30
-30z"/>
<path d="M11904 1683 c-7 -20 -274 -650 -309 -728 -59 -131 -145 -341 -145
-353 0 -9 11 -12 32 -10 31 3 34 7 105 172 40 94 79 173 85 178 7 4 125 8 261
8 l248 0 22 -37 c12 -21 49 -101 82 -178 59 -136 62 -140 93 -143 21 -2 32 1
32 10 0 7 -105 257 -232 555 -184 428 -237 543 -251 543 -10 0 -20 -8 -23 -17z"/>
<path d="M10206 1491 c-5 -8 -8 -361 -6 -879 0 -20 5 -23 28 -20 l27 3 0 450
0 450 -22 3 c-11 2 -24 -1 -27 -7z"/>
<path d="M11155 1488 c-3 -7 -4 -211 -3 -453 l3 -440 24 -3 c13 -2 28 2 32 10
10 15 12 858 3 882 -7 19 -53 21 -59 4z"/>
<path d="M797 1214 c-4 -4 -7 -18 -7 -30 0 -32 19 -35 185 -32 l140 3 0 30 0
30 -156 3 c-85 1 -158 -1 -162 -4z"/>
<path d="M8661 1206 c-7 -8 -10 -24 -6 -36 6 -19 14 -20 159 -20 128 0 156 3
167 16 9 11 10 20 2 32 -15 24 -303 31 -322 8z"/>
<path d="M1815 1170 c-9 -28 -4 -32 57 -55 70 -27 154 -108 164 -160 11 -60
-1 -166 -23 -202 -46 -76 -112 -106 -233 -106 -149 -1 -243 42 -316 147 -16
22 -25 27 -42 22 -60 -19 13 -126 128 -190 54 -29 163 -56 228 -56 56 1 146
21 189 43 47 25 110 102 129 160 37 113 18 228 -52 306 -77 86 -213 140 -229
91z"/>
<path d="M2735 1169 c-8 -25 -4 -30 55 -54 73 -31 106 -57 139 -107 28 -42 31
-55 31 -123 0 -109 -35 -172 -123 -217 -35 -18 -59 -21 -142 -21 -151 1 -215
30 -307 141 -29 36 -40 39 -62 17 -20 -20 -3 -53 60 -117 97 -97 265 -140 414
-104 99 24 155 67 201 156 20 38 23 60 24 145 0 84 -4 107 -22 141 -30 56 -78
100 -147 134 -71 36 -112 39 -121 9z"/>
<path d="M9518 1159 c-10 -5 -18 -15 -18 -21 0 -11 83 -116 255 -323 55 -66
117 -141 138 -168 41 -50 70 -59 87 -28 8 16 4 26 -18 53 -15 18 -34 42 -43
53 -233 285 -363 438 -374 441 -5 2 -18 -1 -27 -7z"/>
<path d="M3564 1087 c-7 -19 23 -129 49 -182 20 -40 67 -113 97 -148 26 -32
122 -103 175 -129 70 -36 192 -68 256 -68 64 0 162 27 245 66 144 70 337 337
232 322 -15 -2 -30 -19 -48 -52 -33 -65 -141 -174 -207 -209 -190 -101 -425
-62 -586 98 -67 66 -97 118 -137 235 -21 60 -30 76 -48 78 -13 2 -25 -3 -28
-11z"/>
</g>
</svg>
